<svg xmlns="http://www.w3.org/2000/svg" viewBox="0 0 1200 510" role="img" aria-labelledby="title">
  <title id="title">pi0.5 heterogeneous training redraw</title>
  <defs><marker id="arrow" viewBox="0 0 10 10" refX="8" refY="5" markerWidth="7" markerHeight="7" orient="auto"><path d="M0 0L10 5L0 10z" fill="#27343b"/></marker><style>.t{font-family:'Segoe UI','Microsoft YaHei',sans-serif;fill:#18252c}.m{font-family:Consolas,monospace;fill:#18252c}.b{stroke:#27343b;stroke-width:2}.wire{stroke:#27343b;stroke-width:2.5;fill:none;marker-end:url(#arrow)}</style></defs>
  <rect width="1200" height="510" rx="24" fill="#f7f1e6"/>
  <g font-family="'Segoe UI','Microsoft YaHei',sans-serif" font-size="19" fill="#18252c"><rect x="40" y="48" width="160" height="58" rx="14" fill="#d7edcb" class="b"/><text x="120" y="84" text-anchor="middle">机器人动作 MM/ME/CE</text><rect x="40" y="125" width="160" height="58" rx="14" fill="#f1d6c6" class="b"/><text x="120" y="161" text-anchor="middle">HL 子任务 + 框</text><rect x="40" y="202" width="160" height="58" rx="14" fill="#d6e2f1" class="b"/><text x="120" y="238" text-anchor="middle">WD 网页视觉</text><rect x="40" y="279" width="160" height="58" rx="14" fill="#e2d4ef" class="b"/><text x="120" y="315" text-anchor="middle">VI 专家语言</text></g>
  <path d="M200 78H290M200 155H290M200 232H290M200 309H290" class="wire"/>
  <rect x="310" y="70" width="250" height="280" rx="20" fill="#fff" class="b"/><text x="435" y="125" text-anchor="middle" class="t" font-size="25">Stage 1</text><text x="435" y="163" text-anchor="middle" class="m" font-size="17">FAST token pretrain</text><path d="M365 215h140M365 245h140M365 275h140" stroke="#4b9db5" stroke-width="9" stroke-linecap="round"/><text x="435" y="320" text-anchor="middle" class="t" font-size="18">共同语义与动作表示</text>
  <path d="M560 210H625" class="wire"/>
  <rect x="645" y="70" width="250" height="280" rx="20" fill="#fff" class="b"/><text x="770" y="125" text-anchor="middle" class="t" font-size="25">Stage 2</text><text x="770" y="163" text-anchor="middle" class="m" font-size="17">token + flow posttrain</text><path d="M705 215c20 -25 40 25 60 0s40 25 60 0" stroke="#6a9e54" stroke-width="6" fill="none"/><text x="770" y="320" text-anchor="middle" class="t" font-size="18">连续控制专门化</text>
  <path d="M895 210H955" class="wire"/>
  <rect x="975" y="55" width="180" height="110" rx="16" fill="#f4d8a3" class="b"/><text x="1065" y="92" text-anchor="middle" class="t" font-size="19">总任务</text><text x="1065" y="128" text-anchor="middle" class="m" font-size="15">clean the room</text><path d="M1065 165V205" class="wire"/>
  <rect x="975" y="215" width="180" height="110" rx="16" fill="#e4c1d9" class="b"/><text x="1065" y="252" text-anchor="middle" class="t" font-size="19">子任务</text><text x="1065" y="288" text-anchor="middle" class="m" font-size="15">pick up pillow</text><path d="M1065 325V365" class="wire"/>
  <rect x="975" y="375" width="180" height="80" rx="16" fill="#b9d98e" class="b"/><text x="1065" y="423" text-anchor="middle" class="t" font-size="19">连续 action chunk</text>
  <text x="600" y="475" text-anchor="middle" class="m" font-size="18">“不同老师教同一个学生”：动作、语义、阶段、语言共同训练</text>
</svg>
